M48
METRIC,TZ
T1C0.635
T2C0.813
T3C1.000
T4C1.200
%
G90
G05
T1
X235077Y-119253
T2
X197739Y-106172
X200279Y-106172
X206375Y-113030
X215265Y-113030
T3
X195707Y-118999
X195707Y-121539
X195707Y-124079
X198247Y-118999
X198247Y-121539
X198247Y-124079
X200152Y-102362
X200787Y-121539
X200787Y-124079
X202692Y-102362
X203327Y-121539
X203327Y-124079
X205232Y-102362
X205867Y-121539
X205867Y-124079
X207772Y-102362
X208407Y-121539
X208407Y-124079
X210947Y-121539
X210947Y-124079
X213487Y-121539
X213487Y-124079
X216027Y-121539
X216027Y-124079
X216662Y-105664
X218567Y-121539
X218567Y-124079
X219202Y-105664
X221107Y-121539
X221107Y-124079
X221742Y-105664
X223647Y-121539
X223647Y-124079
X224282Y-105664
X226187Y-121539
X226187Y-124079
X228727Y-121539
X228727Y-124079
X231267Y-121539
X231267Y-124079
X233807Y-121539
X233807Y-124079
X236347Y-100457
X236347Y-121539
X236347Y-124079
X238887Y-100457
X238887Y-121539
X238887Y-124079
X241427Y-100457
X241427Y-121539
X241427Y-124079
X243967Y-100457
X243967Y-121539
X243967Y-124079
T4
X195707Y-110871
X195707Y-115316
X202057Y-110871
X202057Y-115316
X218059Y-111252
X218059Y-117348
X224409Y-111252
X224409Y-117348
T0
M30
