G04 (created by PCBNEW (22-Jun-2014 BZR 4027)-stable) date Wed 17 Feb 2016 21:07:16 GMT*
%MOIN*%
G04 Gerber Fmt 3.4, Leading zero omitted, Abs format*
%FSLAX34Y34*%
G01*
G70*
G90*
G04 APERTURE LIST*
%ADD10C,0.00590551*%
%ADD11C,0.0629921*%
%ADD12C,0.0669291*%
%ADD13C,0.066*%
%ADD14C,0.055*%
%ADD15C,0.035*%
%ADD16C,0.01*%
G04 APERTURE END LIST*
G54D10*
G54D11*
X94050Y-39550D03*
X95050Y-39550D03*
X93050Y-39550D03*
X96050Y-39550D03*
X86300Y-41600D03*
X87300Y-41600D03*
X85300Y-41600D03*
X88300Y-41600D03*
X80800Y-40300D03*
X79800Y-40300D03*
X81800Y-40300D03*
X78800Y-40300D03*
G54D12*
X85850Y-46200D03*
X88350Y-46200D03*
X77050Y-43650D03*
X79550Y-43650D03*
X85850Y-43800D03*
X88350Y-43800D03*
X77050Y-45400D03*
X79550Y-45400D03*
G54D11*
X77050Y-48850D03*
X77050Y-47850D03*
X78050Y-48850D03*
X78050Y-47850D03*
X79050Y-48850D03*
X79050Y-47850D03*
X80050Y-48850D03*
X80050Y-47850D03*
X81050Y-48850D03*
X81050Y-47850D03*
X82050Y-48850D03*
X82050Y-47850D03*
X83050Y-48850D03*
X83050Y-47850D03*
X84050Y-48850D03*
X84050Y-47850D03*
X85050Y-48850D03*
X85050Y-47850D03*
X86050Y-48850D03*
X86050Y-47850D03*
X87050Y-48850D03*
X87050Y-47850D03*
X88050Y-48850D03*
X88050Y-47850D03*
X89050Y-48850D03*
X89050Y-47850D03*
X90050Y-48850D03*
X90050Y-47850D03*
X91050Y-48850D03*
X91050Y-47850D03*
X92050Y-48850D03*
X92050Y-47850D03*
X93050Y-48850D03*
X93050Y-47850D03*
X94050Y-48850D03*
X94050Y-47850D03*
X95050Y-48850D03*
X95050Y-47850D03*
X96050Y-48850D03*
X96050Y-47850D03*
X77050Y-46850D03*
X78050Y-46850D03*
G54D13*
X77850Y-41800D03*
X78850Y-41800D03*
G54D14*
X84750Y-44500D03*
X81250Y-44500D03*
G54D15*
X92550Y-46950D03*
G54D10*
G36*
X94780Y-48349D02*
X94730Y-48370D01*
X94571Y-48529D01*
X94552Y-48574D01*
X94543Y-48553D01*
X94446Y-48523D01*
X94120Y-48850D01*
X94446Y-49176D01*
X94543Y-49146D01*
X94551Y-49123D01*
X94570Y-49169D01*
X94729Y-49328D01*
X94733Y-49330D01*
X94350Y-49330D01*
X94376Y-49246D01*
X94050Y-48920D01*
X93723Y-49246D01*
X93749Y-49330D01*
X93366Y-49330D01*
X93369Y-49329D01*
X93528Y-49170D01*
X93547Y-49125D01*
X93556Y-49146D01*
X93653Y-49176D01*
X93979Y-48850D01*
X93653Y-48523D01*
X93556Y-48553D01*
X93548Y-48576D01*
X93529Y-48530D01*
X93370Y-48371D01*
X93319Y-48350D01*
X93369Y-48329D01*
X93528Y-48170D01*
X93549Y-48119D01*
X93570Y-48169D01*
X93729Y-48328D01*
X93774Y-48347D01*
X93753Y-48356D01*
X93723Y-48453D01*
X94050Y-48779D01*
X94376Y-48453D01*
X94346Y-48356D01*
X94323Y-48348D01*
X94369Y-48329D01*
X94528Y-48170D01*
X94549Y-48119D01*
X94570Y-48169D01*
X94729Y-48328D01*
X94780Y-48349D01*
X94780Y-48349D01*
G37*
G54D16*
X94780Y-48349D02*
X94730Y-48370D01*
X94571Y-48529D01*
X94552Y-48574D01*
X94543Y-48553D01*
X94446Y-48523D01*
X94120Y-48850D01*
X94446Y-49176D01*
X94543Y-49146D01*
X94551Y-49123D01*
X94570Y-49169D01*
X94729Y-49328D01*
X94733Y-49330D01*
X94350Y-49330D01*
X94376Y-49246D01*
X94050Y-48920D01*
X93723Y-49246D01*
X93749Y-49330D01*
X93366Y-49330D01*
X93369Y-49329D01*
X93528Y-49170D01*
X93547Y-49125D01*
X93556Y-49146D01*
X93653Y-49176D01*
X93979Y-48850D01*
X93653Y-48523D01*
X93556Y-48553D01*
X93548Y-48576D01*
X93529Y-48530D01*
X93370Y-48371D01*
X93319Y-48350D01*
X93369Y-48329D01*
X93528Y-48170D01*
X93549Y-48119D01*
X93570Y-48169D01*
X93729Y-48328D01*
X93774Y-48347D01*
X93753Y-48356D01*
X93723Y-48453D01*
X94050Y-48779D01*
X94376Y-48453D01*
X94346Y-48356D01*
X94323Y-48348D01*
X94369Y-48329D01*
X94528Y-48170D01*
X94549Y-48119D01*
X94570Y-48169D01*
X94729Y-48328D01*
X94780Y-48349D01*
G54D10*
G36*
X96630Y-49330D02*
X96366Y-49330D01*
X96369Y-49329D01*
X96528Y-49170D01*
X96614Y-48962D01*
X96615Y-48738D01*
X96529Y-48530D01*
X96370Y-48371D01*
X96319Y-48350D01*
X96369Y-48329D01*
X96528Y-48170D01*
X96614Y-47962D01*
X96615Y-47738D01*
X96529Y-47530D01*
X96370Y-47371D01*
X96162Y-47285D01*
X95938Y-47284D01*
X95730Y-47370D01*
X95571Y-47529D01*
X95550Y-47580D01*
X95529Y-47530D01*
X95370Y-47371D01*
X95162Y-47285D01*
X94938Y-47284D01*
X94730Y-47370D01*
X94571Y-47529D01*
X94550Y-47580D01*
X94529Y-47530D01*
X94376Y-47376D01*
X94376Y-39946D01*
X94050Y-39620D01*
X93723Y-39946D01*
X93753Y-40043D01*
X93964Y-40119D01*
X94189Y-40108D01*
X94346Y-40043D01*
X94376Y-39946D01*
X94376Y-47376D01*
X94370Y-47371D01*
X94162Y-47285D01*
X93938Y-47284D01*
X93730Y-47370D01*
X93571Y-47529D01*
X93550Y-47580D01*
X93529Y-47530D01*
X93370Y-47371D01*
X93162Y-47285D01*
X92938Y-47284D01*
X92730Y-47370D01*
X92571Y-47529D01*
X92550Y-47580D01*
X92529Y-47530D01*
X92370Y-47371D01*
X92162Y-47285D01*
X91938Y-47284D01*
X91730Y-47370D01*
X91571Y-47529D01*
X91550Y-47580D01*
X91529Y-47530D01*
X91370Y-47371D01*
X91162Y-47285D01*
X90938Y-47284D01*
X90730Y-47370D01*
X90571Y-47529D01*
X90550Y-47580D01*
X90529Y-47530D01*
X90370Y-47371D01*
X90162Y-47285D01*
X89938Y-47284D01*
X89730Y-47370D01*
X89571Y-47529D01*
X89550Y-47580D01*
X89529Y-47530D01*
X89370Y-47371D01*
X89162Y-47285D01*
X88938Y-47284D01*
X88934Y-47286D01*
X88934Y-46084D01*
X88934Y-43684D01*
X88865Y-43515D01*
X88865Y-41488D01*
X88779Y-41280D01*
X88620Y-41121D01*
X88412Y-41035D01*
X88188Y-41034D01*
X87980Y-41120D01*
X87821Y-41279D01*
X87802Y-41324D01*
X87793Y-41303D01*
X87696Y-41273D01*
X87626Y-41344D01*
X87626Y-41203D01*
X87596Y-41106D01*
X87385Y-41030D01*
X87160Y-41041D01*
X87003Y-41106D01*
X86973Y-41203D01*
X87300Y-41529D01*
X87626Y-41203D01*
X87626Y-41344D01*
X87370Y-41600D01*
X87696Y-41926D01*
X87793Y-41896D01*
X87801Y-41873D01*
X87820Y-41919D01*
X87979Y-42078D01*
X88187Y-42164D01*
X88411Y-42165D01*
X88619Y-42079D01*
X88778Y-41920D01*
X88864Y-41712D01*
X88865Y-41488D01*
X88865Y-43515D01*
X88845Y-43469D01*
X88681Y-43304D01*
X88466Y-43215D01*
X88234Y-43215D01*
X88019Y-43304D01*
X87854Y-43468D01*
X87765Y-43683D01*
X87765Y-43915D01*
X87854Y-44130D01*
X88018Y-44295D01*
X88233Y-44384D01*
X88465Y-44384D01*
X88680Y-44295D01*
X88845Y-44131D01*
X88934Y-43916D01*
X88934Y-43684D01*
X88934Y-46084D01*
X88845Y-45869D01*
X88681Y-45704D01*
X88466Y-45615D01*
X88234Y-45615D01*
X88019Y-45704D01*
X87854Y-45868D01*
X87765Y-46083D01*
X87765Y-46315D01*
X87854Y-46530D01*
X88018Y-46695D01*
X88233Y-46784D01*
X88465Y-46784D01*
X88680Y-46695D01*
X88845Y-46531D01*
X88934Y-46316D01*
X88934Y-46084D01*
X88934Y-47286D01*
X88730Y-47370D01*
X88571Y-47529D01*
X88550Y-47580D01*
X88529Y-47530D01*
X88370Y-47371D01*
X88162Y-47285D01*
X87938Y-47284D01*
X87730Y-47370D01*
X87626Y-47474D01*
X87626Y-41996D01*
X87300Y-41670D01*
X87229Y-41741D01*
X87229Y-41600D01*
X86903Y-41273D01*
X86806Y-41303D01*
X86798Y-41326D01*
X86779Y-41280D01*
X86620Y-41121D01*
X86412Y-41035D01*
X86188Y-41034D01*
X85980Y-41120D01*
X85821Y-41279D01*
X85800Y-41330D01*
X85779Y-41280D01*
X85620Y-41121D01*
X85412Y-41035D01*
X85188Y-41034D01*
X84980Y-41120D01*
X84821Y-41279D01*
X84735Y-41487D01*
X84734Y-41711D01*
X84820Y-41919D01*
X84979Y-42078D01*
X85187Y-42164D01*
X85411Y-42165D01*
X85619Y-42079D01*
X85778Y-41920D01*
X85799Y-41869D01*
X85820Y-41919D01*
X85979Y-42078D01*
X86187Y-42164D01*
X86411Y-42165D01*
X86619Y-42079D01*
X86778Y-41920D01*
X86797Y-41875D01*
X86806Y-41896D01*
X86903Y-41926D01*
X87229Y-41600D01*
X87229Y-41741D01*
X86973Y-41996D01*
X87003Y-42093D01*
X87214Y-42169D01*
X87439Y-42158D01*
X87596Y-42093D01*
X87626Y-41996D01*
X87626Y-47474D01*
X87571Y-47529D01*
X87550Y-47580D01*
X87529Y-47530D01*
X87370Y-47371D01*
X87162Y-47285D01*
X86938Y-47284D01*
X86730Y-47370D01*
X86571Y-47529D01*
X86550Y-47580D01*
X86529Y-47530D01*
X86439Y-47440D01*
X86439Y-46290D01*
X86439Y-43890D01*
X86428Y-43657D01*
X86359Y-43491D01*
X86261Y-43459D01*
X86190Y-43530D01*
X86190Y-43388D01*
X86158Y-43290D01*
X85940Y-43210D01*
X85707Y-43221D01*
X85541Y-43290D01*
X85509Y-43388D01*
X85850Y-43729D01*
X86190Y-43388D01*
X86190Y-43530D01*
X85920Y-43800D01*
X86261Y-44140D01*
X86359Y-44108D01*
X86439Y-43890D01*
X86439Y-46290D01*
X86428Y-46057D01*
X86359Y-45891D01*
X86261Y-45859D01*
X86190Y-45930D01*
X86190Y-45788D01*
X86190Y-44211D01*
X85850Y-43870D01*
X85779Y-43941D01*
X85779Y-43800D01*
X85438Y-43459D01*
X85340Y-43491D01*
X85260Y-43709D01*
X85271Y-43942D01*
X85340Y-44108D01*
X85438Y-44140D01*
X85779Y-43800D01*
X85779Y-43941D01*
X85509Y-44211D01*
X85541Y-44309D01*
X85759Y-44389D01*
X85992Y-44378D01*
X86158Y-44309D01*
X86190Y-44211D01*
X86190Y-45788D01*
X86158Y-45690D01*
X85940Y-45610D01*
X85707Y-45621D01*
X85541Y-45690D01*
X85509Y-45788D01*
X85850Y-46129D01*
X86190Y-45788D01*
X86190Y-45930D01*
X85920Y-46200D01*
X86261Y-46540D01*
X86359Y-46508D01*
X86439Y-46290D01*
X86439Y-47440D01*
X86370Y-47371D01*
X86190Y-47296D01*
X86190Y-46611D01*
X85850Y-46270D01*
X85779Y-46341D01*
X85779Y-46200D01*
X85438Y-45859D01*
X85340Y-45891D01*
X85279Y-46057D01*
X85279Y-44575D01*
X85268Y-44367D01*
X85210Y-44227D01*
X85117Y-44202D01*
X85047Y-44273D01*
X85047Y-44132D01*
X85022Y-44039D01*
X84825Y-43970D01*
X84617Y-43981D01*
X84477Y-44039D01*
X84452Y-44132D01*
X84750Y-44429D01*
X85047Y-44132D01*
X85047Y-44273D01*
X84820Y-44500D01*
X85117Y-44797D01*
X85210Y-44772D01*
X85279Y-44575D01*
X85279Y-46057D01*
X85260Y-46109D01*
X85271Y-46342D01*
X85340Y-46508D01*
X85438Y-46540D01*
X85779Y-46200D01*
X85779Y-46341D01*
X85509Y-46611D01*
X85541Y-46709D01*
X85759Y-46789D01*
X85992Y-46778D01*
X86158Y-46709D01*
X86190Y-46611D01*
X86190Y-47296D01*
X86162Y-47285D01*
X85938Y-47284D01*
X85730Y-47370D01*
X85571Y-47529D01*
X85550Y-47580D01*
X85529Y-47530D01*
X85370Y-47371D01*
X85162Y-47285D01*
X85047Y-47285D01*
X85047Y-44867D01*
X84750Y-44570D01*
X84679Y-44641D01*
X84679Y-44500D01*
X84382Y-44202D01*
X84289Y-44227D01*
X84220Y-44424D01*
X84231Y-44632D01*
X84289Y-44772D01*
X84382Y-44797D01*
X84679Y-44500D01*
X84679Y-44641D01*
X84452Y-44867D01*
X84477Y-44960D01*
X84674Y-45029D01*
X84882Y-45018D01*
X85022Y-44960D01*
X85047Y-44867D01*
X85047Y-47285D01*
X84938Y-47284D01*
X84730Y-47370D01*
X84571Y-47529D01*
X84550Y-47580D01*
X84529Y-47530D01*
X84370Y-47371D01*
X84162Y-47285D01*
X83938Y-47284D01*
X83730Y-47370D01*
X83571Y-47529D01*
X83550Y-47580D01*
X83529Y-47530D01*
X83370Y-47371D01*
X83162Y-47285D01*
X82938Y-47284D01*
X82730Y-47370D01*
X82571Y-47529D01*
X82550Y-47580D01*
X82529Y-47530D01*
X82370Y-47371D01*
X82365Y-47369D01*
X82365Y-40188D01*
X82279Y-39980D01*
X82120Y-39821D01*
X81912Y-39735D01*
X81688Y-39734D01*
X81480Y-39820D01*
X81321Y-39979D01*
X81302Y-40024D01*
X81293Y-40003D01*
X81196Y-39973D01*
X81126Y-40044D01*
X81126Y-39903D01*
X81096Y-39806D01*
X80885Y-39730D01*
X80660Y-39741D01*
X80503Y-39806D01*
X80473Y-39903D01*
X80800Y-40229D01*
X81126Y-39903D01*
X81126Y-40044D01*
X80870Y-40300D01*
X81196Y-40626D01*
X81293Y-40596D01*
X81301Y-40573D01*
X81320Y-40619D01*
X81479Y-40778D01*
X81687Y-40864D01*
X81911Y-40865D01*
X82119Y-40779D01*
X82278Y-40620D01*
X82364Y-40412D01*
X82365Y-40188D01*
X82365Y-47369D01*
X82162Y-47285D01*
X81938Y-47284D01*
X81775Y-47352D01*
X81775Y-44396D01*
X81695Y-44203D01*
X81547Y-44055D01*
X81354Y-43975D01*
X81146Y-43974D01*
X81126Y-43983D01*
X81126Y-40696D01*
X80800Y-40370D01*
X80729Y-40441D01*
X80729Y-40300D01*
X80403Y-39973D01*
X80306Y-40003D01*
X80298Y-40026D01*
X80279Y-39980D01*
X80120Y-39821D01*
X79912Y-39735D01*
X79688Y-39734D01*
X79480Y-39820D01*
X79321Y-39979D01*
X79300Y-40030D01*
X79279Y-39980D01*
X79120Y-39821D01*
X78912Y-39735D01*
X78688Y-39734D01*
X78480Y-39820D01*
X78321Y-39979D01*
X78235Y-40187D01*
X78234Y-40411D01*
X78320Y-40619D01*
X78479Y-40778D01*
X78687Y-40864D01*
X78911Y-40865D01*
X79119Y-40779D01*
X79278Y-40620D01*
X79299Y-40569D01*
X79320Y-40619D01*
X79479Y-40778D01*
X79687Y-40864D01*
X79911Y-40865D01*
X80119Y-40779D01*
X80278Y-40620D01*
X80297Y-40575D01*
X80306Y-40596D01*
X80403Y-40626D01*
X80729Y-40300D01*
X80729Y-40441D01*
X80473Y-40696D01*
X80503Y-40793D01*
X80714Y-40869D01*
X80939Y-40858D01*
X81096Y-40793D01*
X81126Y-40696D01*
X81126Y-43983D01*
X80953Y-44054D01*
X80805Y-44202D01*
X80725Y-44395D01*
X80724Y-44603D01*
X80804Y-44797D01*
X80952Y-44944D01*
X81145Y-45024D01*
X81353Y-45025D01*
X81547Y-44945D01*
X81694Y-44797D01*
X81774Y-44604D01*
X81775Y-44396D01*
X81775Y-47352D01*
X81730Y-47370D01*
X81571Y-47529D01*
X81550Y-47580D01*
X81529Y-47530D01*
X81370Y-47371D01*
X81162Y-47285D01*
X80938Y-47284D01*
X80730Y-47370D01*
X80571Y-47529D01*
X80550Y-47580D01*
X80529Y-47530D01*
X80370Y-47371D01*
X80162Y-47285D01*
X80134Y-47285D01*
X80134Y-45284D01*
X80134Y-43534D01*
X80045Y-43319D01*
X79881Y-43154D01*
X79666Y-43065D01*
X79434Y-43065D01*
X79430Y-43066D01*
X79430Y-41685D01*
X79341Y-41471D01*
X79178Y-41308D01*
X78965Y-41220D01*
X78735Y-41219D01*
X78521Y-41308D01*
X78358Y-41471D01*
X78350Y-41491D01*
X78341Y-41471D01*
X78178Y-41308D01*
X77965Y-41220D01*
X77735Y-41219D01*
X77521Y-41308D01*
X77358Y-41471D01*
X77270Y-41684D01*
X77269Y-41914D01*
X77358Y-42128D01*
X77521Y-42291D01*
X77734Y-42379D01*
X77964Y-42380D01*
X78178Y-42291D01*
X78341Y-42128D01*
X78349Y-42108D01*
X78358Y-42128D01*
X78521Y-42291D01*
X78734Y-42379D01*
X78964Y-42380D01*
X79178Y-42291D01*
X79341Y-42128D01*
X79429Y-41915D01*
X79430Y-41685D01*
X79430Y-43066D01*
X79219Y-43154D01*
X79054Y-43318D01*
X78965Y-43533D01*
X78965Y-43765D01*
X79054Y-43980D01*
X79218Y-44145D01*
X79433Y-44234D01*
X79665Y-44234D01*
X79880Y-44145D01*
X80045Y-43981D01*
X80134Y-43766D01*
X80134Y-43534D01*
X80134Y-45284D01*
X80045Y-45069D01*
X79881Y-44904D01*
X79666Y-44815D01*
X79434Y-44815D01*
X79219Y-44904D01*
X79054Y-45068D01*
X78965Y-45283D01*
X78965Y-45515D01*
X79054Y-45730D01*
X79218Y-45895D01*
X79433Y-45984D01*
X79665Y-45984D01*
X79880Y-45895D01*
X80045Y-45731D01*
X80134Y-45516D01*
X80134Y-45284D01*
X80134Y-47285D01*
X79938Y-47284D01*
X79730Y-47370D01*
X79571Y-47529D01*
X79550Y-47580D01*
X79529Y-47530D01*
X79370Y-47371D01*
X79162Y-47285D01*
X78938Y-47284D01*
X78730Y-47370D01*
X78571Y-47529D01*
X78550Y-47580D01*
X78529Y-47530D01*
X78370Y-47371D01*
X78319Y-47350D01*
X78369Y-47329D01*
X78528Y-47170D01*
X78614Y-46962D01*
X78615Y-46738D01*
X78529Y-46530D01*
X78370Y-46371D01*
X78162Y-46285D01*
X77938Y-46284D01*
X77730Y-46370D01*
X77639Y-46461D01*
X77639Y-43740D01*
X77628Y-43507D01*
X77559Y-43341D01*
X77461Y-43309D01*
X77390Y-43380D01*
X77390Y-43238D01*
X77358Y-43140D01*
X77140Y-43060D01*
X76907Y-43071D01*
X76741Y-43140D01*
X76709Y-43238D01*
X77050Y-43579D01*
X77390Y-43238D01*
X77390Y-43380D01*
X77120Y-43650D01*
X77461Y-43990D01*
X77559Y-43958D01*
X77639Y-43740D01*
X77639Y-46461D01*
X77571Y-46529D01*
X77550Y-46580D01*
X77529Y-46530D01*
X77370Y-46371D01*
X77162Y-46285D01*
X76938Y-46284D01*
X76730Y-46370D01*
X76571Y-46529D01*
X76500Y-46701D01*
X76500Y-45599D01*
X76554Y-45730D01*
X76718Y-45895D01*
X76933Y-45984D01*
X77165Y-45984D01*
X77380Y-45895D01*
X77545Y-45731D01*
X77634Y-45516D01*
X77634Y-45284D01*
X77545Y-45069D01*
X77390Y-44913D01*
X77390Y-44061D01*
X77050Y-43720D01*
X76709Y-44061D01*
X76741Y-44159D01*
X76959Y-44239D01*
X77192Y-44228D01*
X77358Y-44159D01*
X77390Y-44061D01*
X77390Y-44913D01*
X77381Y-44904D01*
X77166Y-44815D01*
X76934Y-44815D01*
X76719Y-44904D01*
X76554Y-45068D01*
X76500Y-45200D01*
X76500Y-43861D01*
X76540Y-43958D01*
X76638Y-43990D01*
X76979Y-43650D01*
X76638Y-43309D01*
X76540Y-43341D01*
X76500Y-43451D01*
X76500Y-39391D01*
X76557Y-39204D01*
X76684Y-39050D01*
X92780Y-39050D01*
X92730Y-39070D01*
X92571Y-39229D01*
X92485Y-39437D01*
X92484Y-39661D01*
X92570Y-39869D01*
X92729Y-40028D01*
X92937Y-40114D01*
X93161Y-40115D01*
X93369Y-40029D01*
X93528Y-39870D01*
X93547Y-39825D01*
X93556Y-39846D01*
X93653Y-39876D01*
X93979Y-39550D01*
X93653Y-39223D01*
X93556Y-39253D01*
X93548Y-39276D01*
X93529Y-39230D01*
X93370Y-39071D01*
X93319Y-39050D01*
X93768Y-39050D01*
X93753Y-39056D01*
X93723Y-39153D01*
X94050Y-39479D01*
X94376Y-39153D01*
X94346Y-39056D01*
X94329Y-39050D01*
X94780Y-39050D01*
X94730Y-39070D01*
X94571Y-39229D01*
X94552Y-39274D01*
X94543Y-39253D01*
X94446Y-39223D01*
X94120Y-39550D01*
X94446Y-39876D01*
X94543Y-39846D01*
X94551Y-39823D01*
X94570Y-39869D01*
X94729Y-40028D01*
X94937Y-40114D01*
X95161Y-40115D01*
X95369Y-40029D01*
X95528Y-39870D01*
X95549Y-39819D01*
X95570Y-39869D01*
X95729Y-40028D01*
X95937Y-40114D01*
X96161Y-40115D01*
X96369Y-40029D01*
X96528Y-39870D01*
X96614Y-39662D01*
X96615Y-39500D01*
X96630Y-39578D01*
X96630Y-49330D01*
X96630Y-49330D01*
G37*
G54D16*
X96630Y-49330D02*
X96366Y-49330D01*
X96369Y-49329D01*
X96528Y-49170D01*
X96614Y-48962D01*
X96615Y-48738D01*
X96529Y-48530D01*
X96370Y-48371D01*
X96319Y-48350D01*
X96369Y-48329D01*
X96528Y-48170D01*
X96614Y-47962D01*
X96615Y-47738D01*
X96529Y-47530D01*
X96370Y-47371D01*
X96162Y-47285D01*
X95938Y-47284D01*
X95730Y-47370D01*
X95571Y-47529D01*
X95550Y-47580D01*
X95529Y-47530D01*
X95370Y-47371D01*
X95162Y-47285D01*
X94938Y-47284D01*
X94730Y-47370D01*
X94571Y-47529D01*
X94550Y-47580D01*
X94529Y-47530D01*
X94376Y-47376D01*
X94376Y-39946D01*
X94050Y-39620D01*
X93723Y-39946D01*
X93753Y-40043D01*
X93964Y-40119D01*
X94189Y-40108D01*
X94346Y-40043D01*
X94376Y-39946D01*
X94376Y-47376D01*
X94370Y-47371D01*
X94162Y-47285D01*
X93938Y-47284D01*
X93730Y-47370D01*
X93571Y-47529D01*
X93550Y-47580D01*
X93529Y-47530D01*
X93370Y-47371D01*
X93162Y-47285D01*
X92938Y-47284D01*
X92730Y-47370D01*
X92571Y-47529D01*
X92550Y-47580D01*
X92529Y-47530D01*
X92370Y-47371D01*
X92162Y-47285D01*
X91938Y-47284D01*
X91730Y-47370D01*
X91571Y-47529D01*
X91550Y-47580D01*
X91529Y-47530D01*
X91370Y-47371D01*
X91162Y-47285D01*
X90938Y-47284D01*
X90730Y-47370D01*
X90571Y-47529D01*
X90550Y-47580D01*
X90529Y-47530D01*
X90370Y-47371D01*
X90162Y-47285D01*
X89938Y-47284D01*
X89730Y-47370D01*
X89571Y-47529D01*
X89550Y-47580D01*
X89529Y-47530D01*
X89370Y-47371D01*
X89162Y-47285D01*
X88938Y-47284D01*
X88934Y-47286D01*
X88934Y-46084D01*
X88934Y-43684D01*
X88865Y-43515D01*
X88865Y-41488D01*
X88779Y-41280D01*
X88620Y-41121D01*
X88412Y-41035D01*
X88188Y-41034D01*
X87980Y-41120D01*
X87821Y-41279D01*
X87802Y-41324D01*
X87793Y-41303D01*
X87696Y-41273D01*
X87626Y-41344D01*
X87626Y-41203D01*
X87596Y-41106D01*
X87385Y-41030D01*
X87160Y-41041D01*
X87003Y-41106D01*
X86973Y-41203D01*
X87300Y-41529D01*
X87626Y-41203D01*
X87626Y-41344D01*
X87370Y-41600D01*
X87696Y-41926D01*
X87793Y-41896D01*
X87801Y-41873D01*
X87820Y-41919D01*
X87979Y-42078D01*
X88187Y-42164D01*
X88411Y-42165D01*
X88619Y-42079D01*
X88778Y-41920D01*
X88864Y-41712D01*
X88865Y-41488D01*
X88865Y-43515D01*
X88845Y-43469D01*
X88681Y-43304D01*
X88466Y-43215D01*
X88234Y-43215D01*
X88019Y-43304D01*
X87854Y-43468D01*
X87765Y-43683D01*
X87765Y-43915D01*
X87854Y-44130D01*
X88018Y-44295D01*
X88233Y-44384D01*
X88465Y-44384D01*
X88680Y-44295D01*
X88845Y-44131D01*
X88934Y-43916D01*
X88934Y-43684D01*
X88934Y-46084D01*
X88845Y-45869D01*
X88681Y-45704D01*
X88466Y-45615D01*
X88234Y-45615D01*
X88019Y-45704D01*
X87854Y-45868D01*
X87765Y-46083D01*
X87765Y-46315D01*
X87854Y-46530D01*
X88018Y-46695D01*
X88233Y-46784D01*
X88465Y-46784D01*
X88680Y-46695D01*
X88845Y-46531D01*
X88934Y-46316D01*
X88934Y-46084D01*
X88934Y-47286D01*
X88730Y-47370D01*
X88571Y-47529D01*
X88550Y-47580D01*
X88529Y-47530D01*
X88370Y-47371D01*
X88162Y-47285D01*
X87938Y-47284D01*
X87730Y-47370D01*
X87626Y-47474D01*
X87626Y-41996D01*
X87300Y-41670D01*
X87229Y-41741D01*
X87229Y-41600D01*
X86903Y-41273D01*
X86806Y-41303D01*
X86798Y-41326D01*
X86779Y-41280D01*
X86620Y-41121D01*
X86412Y-41035D01*
X86188Y-41034D01*
X85980Y-41120D01*
X85821Y-41279D01*
X85800Y-41330D01*
X85779Y-41280D01*
X85620Y-41121D01*
X85412Y-41035D01*
X85188Y-41034D01*
X84980Y-41120D01*
X84821Y-41279D01*
X84735Y-41487D01*
X84734Y-41711D01*
X84820Y-41919D01*
X84979Y-42078D01*
X85187Y-42164D01*
X85411Y-42165D01*
X85619Y-42079D01*
X85778Y-41920D01*
X85799Y-41869D01*
X85820Y-41919D01*
X85979Y-42078D01*
X86187Y-42164D01*
X86411Y-42165D01*
X86619Y-42079D01*
X86778Y-41920D01*
X86797Y-41875D01*
X86806Y-41896D01*
X86903Y-41926D01*
X87229Y-41600D01*
X87229Y-41741D01*
X86973Y-41996D01*
X87003Y-42093D01*
X87214Y-42169D01*
X87439Y-42158D01*
X87596Y-42093D01*
X87626Y-41996D01*
X87626Y-47474D01*
X87571Y-47529D01*
X87550Y-47580D01*
X87529Y-47530D01*
X87370Y-47371D01*
X87162Y-47285D01*
X86938Y-47284D01*
X86730Y-47370D01*
X86571Y-47529D01*
X86550Y-47580D01*
X86529Y-47530D01*
X86439Y-47440D01*
X86439Y-46290D01*
X86439Y-43890D01*
X86428Y-43657D01*
X86359Y-43491D01*
X86261Y-43459D01*
X86190Y-43530D01*
X86190Y-43388D01*
X86158Y-43290D01*
X85940Y-43210D01*
X85707Y-43221D01*
X85541Y-43290D01*
X85509Y-43388D01*
X85850Y-43729D01*
X86190Y-43388D01*
X86190Y-43530D01*
X85920Y-43800D01*
X86261Y-44140D01*
X86359Y-44108D01*
X86439Y-43890D01*
X86439Y-46290D01*
X86428Y-46057D01*
X86359Y-45891D01*
X86261Y-45859D01*
X86190Y-45930D01*
X86190Y-45788D01*
X86190Y-44211D01*
X85850Y-43870D01*
X85779Y-43941D01*
X85779Y-43800D01*
X85438Y-43459D01*
X85340Y-43491D01*
X85260Y-43709D01*
X85271Y-43942D01*
X85340Y-44108D01*
X85438Y-44140D01*
X85779Y-43800D01*
X85779Y-43941D01*
X85509Y-44211D01*
X85541Y-44309D01*
X85759Y-44389D01*
X85992Y-44378D01*
X86158Y-44309D01*
X86190Y-44211D01*
X86190Y-45788D01*
X86158Y-45690D01*
X85940Y-45610D01*
X85707Y-45621D01*
X85541Y-45690D01*
X85509Y-45788D01*
X85850Y-46129D01*
X86190Y-45788D01*
X86190Y-45930D01*
X85920Y-46200D01*
X86261Y-46540D01*
X86359Y-46508D01*
X86439Y-46290D01*
X86439Y-47440D01*
X86370Y-47371D01*
X86190Y-47296D01*
X86190Y-46611D01*
X85850Y-46270D01*
X85779Y-46341D01*
X85779Y-46200D01*
X85438Y-45859D01*
X85340Y-45891D01*
X85279Y-46057D01*
X85279Y-44575D01*
X85268Y-44367D01*
X85210Y-44227D01*
X85117Y-44202D01*
X85047Y-44273D01*
X85047Y-44132D01*
X85022Y-44039D01*
X84825Y-43970D01*
X84617Y-43981D01*
X84477Y-44039D01*
X84452Y-44132D01*
X84750Y-44429D01*
X85047Y-44132D01*
X85047Y-44273D01*
X84820Y-44500D01*
X85117Y-44797D01*
X85210Y-44772D01*
X85279Y-44575D01*
X85279Y-46057D01*
X85260Y-46109D01*
X85271Y-46342D01*
X85340Y-46508D01*
X85438Y-46540D01*
X85779Y-46200D01*
X85779Y-46341D01*
X85509Y-46611D01*
X85541Y-46709D01*
X85759Y-46789D01*
X85992Y-46778D01*
X86158Y-46709D01*
X86190Y-46611D01*
X86190Y-47296D01*
X86162Y-47285D01*
X85938Y-47284D01*
X85730Y-47370D01*
X85571Y-47529D01*
X85550Y-47580D01*
X85529Y-47530D01*
X85370Y-47371D01*
X85162Y-47285D01*
X85047Y-47285D01*
X85047Y-44867D01*
X84750Y-44570D01*
X84679Y-44641D01*
X84679Y-44500D01*
X84382Y-44202D01*
X84289Y-44227D01*
X84220Y-44424D01*
X84231Y-44632D01*
X84289Y-44772D01*
X84382Y-44797D01*
X84679Y-44500D01*
X84679Y-44641D01*
X84452Y-44867D01*
X84477Y-44960D01*
X84674Y-45029D01*
X84882Y-45018D01*
X85022Y-44960D01*
X85047Y-44867D01*
X85047Y-47285D01*
X84938Y-47284D01*
X84730Y-47370D01*
X84571Y-47529D01*
X84550Y-47580D01*
X84529Y-47530D01*
X84370Y-47371D01*
X84162Y-47285D01*
X83938Y-47284D01*
X83730Y-47370D01*
X83571Y-47529D01*
X83550Y-47580D01*
X83529Y-47530D01*
X83370Y-47371D01*
X83162Y-47285D01*
X82938Y-47284D01*
X82730Y-47370D01*
X82571Y-47529D01*
X82550Y-47580D01*
X82529Y-47530D01*
X82370Y-47371D01*
X82365Y-47369D01*
X82365Y-40188D01*
X82279Y-39980D01*
X82120Y-39821D01*
X81912Y-39735D01*
X81688Y-39734D01*
X81480Y-39820D01*
X81321Y-39979D01*
X81302Y-40024D01*
X81293Y-40003D01*
X81196Y-39973D01*
X81126Y-40044D01*
X81126Y-39903D01*
X81096Y-39806D01*
X80885Y-39730D01*
X80660Y-39741D01*
X80503Y-39806D01*
X80473Y-39903D01*
X80800Y-40229D01*
X81126Y-39903D01*
X81126Y-40044D01*
X80870Y-40300D01*
X81196Y-40626D01*
X81293Y-40596D01*
X81301Y-40573D01*
X81320Y-40619D01*
X81479Y-40778D01*
X81687Y-40864D01*
X81911Y-40865D01*
X82119Y-40779D01*
X82278Y-40620D01*
X82364Y-40412D01*
X82365Y-40188D01*
X82365Y-47369D01*
X82162Y-47285D01*
X81938Y-47284D01*
X81775Y-47352D01*
X81775Y-44396D01*
X81695Y-44203D01*
X81547Y-44055D01*
X81354Y-43975D01*
X81146Y-43974D01*
X81126Y-43983D01*
X81126Y-40696D01*
X80800Y-40370D01*
X80729Y-40441D01*
X80729Y-40300D01*
X80403Y-39973D01*
X80306Y-40003D01*
X80298Y-40026D01*
X80279Y-39980D01*
X80120Y-39821D01*
X79912Y-39735D01*
X79688Y-39734D01*
X79480Y-39820D01*
X79321Y-39979D01*
X79300Y-40030D01*
X79279Y-39980D01*
X79120Y-39821D01*
X78912Y-39735D01*
X78688Y-39734D01*
X78480Y-39820D01*
X78321Y-39979D01*
X78235Y-40187D01*
X78234Y-40411D01*
X78320Y-40619D01*
X78479Y-40778D01*
X78687Y-40864D01*
X78911Y-40865D01*
X79119Y-40779D01*
X79278Y-40620D01*
X79299Y-40569D01*
X79320Y-40619D01*
X79479Y-40778D01*
X79687Y-40864D01*
X79911Y-40865D01*
X80119Y-40779D01*
X80278Y-40620D01*
X80297Y-40575D01*
X80306Y-40596D01*
X80403Y-40626D01*
X80729Y-40300D01*
X80729Y-40441D01*
X80473Y-40696D01*
X80503Y-40793D01*
X80714Y-40869D01*
X80939Y-40858D01*
X81096Y-40793D01*
X81126Y-40696D01*
X81126Y-43983D01*
X80953Y-44054D01*
X80805Y-44202D01*
X80725Y-44395D01*
X80724Y-44603D01*
X80804Y-44797D01*
X80952Y-44944D01*
X81145Y-45024D01*
X81353Y-45025D01*
X81547Y-44945D01*
X81694Y-44797D01*
X81774Y-44604D01*
X81775Y-44396D01*
X81775Y-47352D01*
X81730Y-47370D01*
X81571Y-47529D01*
X81550Y-47580D01*
X81529Y-47530D01*
X81370Y-47371D01*
X81162Y-47285D01*
X80938Y-47284D01*
X80730Y-47370D01*
X80571Y-47529D01*
X80550Y-47580D01*
X80529Y-47530D01*
X80370Y-47371D01*
X80162Y-47285D01*
X80134Y-47285D01*
X80134Y-45284D01*
X80134Y-43534D01*
X80045Y-43319D01*
X79881Y-43154D01*
X79666Y-43065D01*
X79434Y-43065D01*
X79430Y-43066D01*
X79430Y-41685D01*
X79341Y-41471D01*
X79178Y-41308D01*
X78965Y-41220D01*
X78735Y-41219D01*
X78521Y-41308D01*
X78358Y-41471D01*
X78350Y-41491D01*
X78341Y-41471D01*
X78178Y-41308D01*
X77965Y-41220D01*
X77735Y-41219D01*
X77521Y-41308D01*
X77358Y-41471D01*
X77270Y-41684D01*
X77269Y-41914D01*
X77358Y-42128D01*
X77521Y-42291D01*
X77734Y-42379D01*
X77964Y-42380D01*
X78178Y-42291D01*
X78341Y-42128D01*
X78349Y-42108D01*
X78358Y-42128D01*
X78521Y-42291D01*
X78734Y-42379D01*
X78964Y-42380D01*
X79178Y-42291D01*
X79341Y-42128D01*
X79429Y-41915D01*
X79430Y-41685D01*
X79430Y-43066D01*
X79219Y-43154D01*
X79054Y-43318D01*
X78965Y-43533D01*
X78965Y-43765D01*
X79054Y-43980D01*
X79218Y-44145D01*
X79433Y-44234D01*
X79665Y-44234D01*
X79880Y-44145D01*
X80045Y-43981D01*
X80134Y-43766D01*
X80134Y-43534D01*
X80134Y-45284D01*
X80045Y-45069D01*
X79881Y-44904D01*
X79666Y-44815D01*
X79434Y-44815D01*
X79219Y-44904D01*
X79054Y-45068D01*
X78965Y-45283D01*
X78965Y-45515D01*
X79054Y-45730D01*
X79218Y-45895D01*
X79433Y-45984D01*
X79665Y-45984D01*
X79880Y-45895D01*
X80045Y-45731D01*
X80134Y-45516D01*
X80134Y-45284D01*
X80134Y-47285D01*
X79938Y-47284D01*
X79730Y-47370D01*
X79571Y-47529D01*
X79550Y-47580D01*
X79529Y-47530D01*
X79370Y-47371D01*
X79162Y-47285D01*
X78938Y-47284D01*
X78730Y-47370D01*
X78571Y-47529D01*
X78550Y-47580D01*
X78529Y-47530D01*
X78370Y-47371D01*
X78319Y-47350D01*
X78369Y-47329D01*
X78528Y-47170D01*
X78614Y-46962D01*
X78615Y-46738D01*
X78529Y-46530D01*
X78370Y-46371D01*
X78162Y-46285D01*
X77938Y-46284D01*
X77730Y-46370D01*
X77639Y-46461D01*
X77639Y-43740D01*
X77628Y-43507D01*
X77559Y-43341D01*
X77461Y-43309D01*
X77390Y-43380D01*
X77390Y-43238D01*
X77358Y-43140D01*
X77140Y-43060D01*
X76907Y-43071D01*
X76741Y-43140D01*
X76709Y-43238D01*
X77050Y-43579D01*
X77390Y-43238D01*
X77390Y-43380D01*
X77120Y-43650D01*
X77461Y-43990D01*
X77559Y-43958D01*
X77639Y-43740D01*
X77639Y-46461D01*
X77571Y-46529D01*
X77550Y-46580D01*
X77529Y-46530D01*
X77370Y-46371D01*
X77162Y-46285D01*
X76938Y-46284D01*
X76730Y-46370D01*
X76571Y-46529D01*
X76500Y-46701D01*
X76500Y-45599D01*
X76554Y-45730D01*
X76718Y-45895D01*
X76933Y-45984D01*
X77165Y-45984D01*
X77380Y-45895D01*
X77545Y-45731D01*
X77634Y-45516D01*
X77634Y-45284D01*
X77545Y-45069D01*
X77390Y-44913D01*
X77390Y-44061D01*
X77050Y-43720D01*
X76709Y-44061D01*
X76741Y-44159D01*
X76959Y-44239D01*
X77192Y-44228D01*
X77358Y-44159D01*
X77390Y-44061D01*
X77390Y-44913D01*
X77381Y-44904D01*
X77166Y-44815D01*
X76934Y-44815D01*
X76719Y-44904D01*
X76554Y-45068D01*
X76500Y-45200D01*
X76500Y-43861D01*
X76540Y-43958D01*
X76638Y-43990D01*
X76979Y-43650D01*
X76638Y-43309D01*
X76540Y-43341D01*
X76500Y-43451D01*
X76500Y-39391D01*
X76557Y-39204D01*
X76684Y-39050D01*
X92780Y-39050D01*
X92730Y-39070D01*
X92571Y-39229D01*
X92485Y-39437D01*
X92484Y-39661D01*
X92570Y-39869D01*
X92729Y-40028D01*
X92937Y-40114D01*
X93161Y-40115D01*
X93369Y-40029D01*
X93528Y-39870D01*
X93547Y-39825D01*
X93556Y-39846D01*
X93653Y-39876D01*
X93979Y-39550D01*
X93653Y-39223D01*
X93556Y-39253D01*
X93548Y-39276D01*
X93529Y-39230D01*
X93370Y-39071D01*
X93319Y-39050D01*
X93768Y-39050D01*
X93753Y-39056D01*
X93723Y-39153D01*
X94050Y-39479D01*
X94376Y-39153D01*
X94346Y-39056D01*
X94329Y-39050D01*
X94780Y-39050D01*
X94730Y-39070D01*
X94571Y-39229D01*
X94552Y-39274D01*
X94543Y-39253D01*
X94446Y-39223D01*
X94120Y-39550D01*
X94446Y-39876D01*
X94543Y-39846D01*
X94551Y-39823D01*
X94570Y-39869D01*
X94729Y-40028D01*
X94937Y-40114D01*
X95161Y-40115D01*
X95369Y-40029D01*
X95528Y-39870D01*
X95549Y-39819D01*
X95570Y-39869D01*
X95729Y-40028D01*
X95937Y-40114D01*
X96161Y-40115D01*
X96369Y-40029D01*
X96528Y-39870D01*
X96614Y-39662D01*
X96615Y-39500D01*
X96630Y-39578D01*
X96630Y-49330D01*
M02*
