G04 (created by PCBNEW (22-Jun-2014 BZR 4027)-stable) date Wed 17 Feb 2016 21:07:16 GMT*
%MOIN*%
G04 Gerber Fmt 3.4, Leading zero omitted, Abs format*
%FSLAX34Y34*%
G01*
G70*
G90*
G04 APERTURE LIST*
%ADD10C,0.00590551*%
%ADD11C,0.0629921*%
%ADD12C,0.0669291*%
%ADD13C,0.066*%
%ADD14C,0.055*%
%ADD15C,0.035*%
%ADD16C,0.01*%
G04 APERTURE END LIST*
G54D10*
G54D11*
X94050Y-39550D03*
X95050Y-39550D03*
X93050Y-39550D03*
X96050Y-39550D03*
X86300Y-41600D03*
X87300Y-41600D03*
X85300Y-41600D03*
X88300Y-41600D03*
X80800Y-40300D03*
X79800Y-40300D03*
X81800Y-40300D03*
X78800Y-40300D03*
G54D12*
X85850Y-46200D03*
X88350Y-46200D03*
X77050Y-43650D03*
X79550Y-43650D03*
X85850Y-43800D03*
X88350Y-43800D03*
X77050Y-45400D03*
X79550Y-45400D03*
G54D11*
X77050Y-48850D03*
X77050Y-47850D03*
X78050Y-48850D03*
X78050Y-47850D03*
X79050Y-48850D03*
X79050Y-47850D03*
X80050Y-48850D03*
X80050Y-47850D03*
X81050Y-48850D03*
X81050Y-47850D03*
X82050Y-48850D03*
X82050Y-47850D03*
X83050Y-48850D03*
X83050Y-47850D03*
X84050Y-48850D03*
X84050Y-47850D03*
X85050Y-48850D03*
X85050Y-47850D03*
X86050Y-48850D03*
X86050Y-47850D03*
X87050Y-48850D03*
X87050Y-47850D03*
X88050Y-48850D03*
X88050Y-47850D03*
X89050Y-48850D03*
X89050Y-47850D03*
X90050Y-48850D03*
X90050Y-47850D03*
X91050Y-48850D03*
X91050Y-47850D03*
X92050Y-48850D03*
X92050Y-47850D03*
X93050Y-48850D03*
X93050Y-47850D03*
X94050Y-48850D03*
X94050Y-47850D03*
X95050Y-48850D03*
X95050Y-47850D03*
X96050Y-48850D03*
X96050Y-47850D03*
X77050Y-46850D03*
X78050Y-46850D03*
G54D13*
X77850Y-41800D03*
X78850Y-41800D03*
G54D14*
X84750Y-44500D03*
X81250Y-44500D03*
G54D15*
X92550Y-46950D03*
G54D16*
X88350Y-46200D02*
X88400Y-46200D01*
X88400Y-46200D02*
X90050Y-47850D01*
X79550Y-45400D02*
X79500Y-45400D01*
X79500Y-45400D02*
X78050Y-46850D01*
X81050Y-48850D02*
X80900Y-48850D01*
X78050Y-40300D02*
X78800Y-40300D01*
X76400Y-41950D02*
X78050Y-40300D01*
X76400Y-48050D02*
X76400Y-41950D01*
X76700Y-48350D02*
X76400Y-48050D01*
X80400Y-48350D02*
X76700Y-48350D01*
X80900Y-48850D02*
X80400Y-48350D01*
X77050Y-45400D02*
X77050Y-46850D01*
X95050Y-39550D02*
X95000Y-39550D01*
X87100Y-40800D02*
X86300Y-41600D01*
X90550Y-40800D02*
X87100Y-40800D01*
X92400Y-38950D02*
X90550Y-40800D01*
X94400Y-38950D02*
X92400Y-38950D01*
X95000Y-39550D02*
X94400Y-38950D01*
X95050Y-39550D02*
X95050Y-46850D01*
X95050Y-46850D02*
X94050Y-47850D01*
X77850Y-41800D02*
X77850Y-43350D01*
X88550Y-48350D02*
X89050Y-48850D01*
X88550Y-47500D02*
X88550Y-48350D01*
X88250Y-47200D02*
X88550Y-47500D01*
X84950Y-47200D02*
X88250Y-47200D01*
X83650Y-45900D02*
X84950Y-47200D01*
X81150Y-45900D02*
X83650Y-45900D01*
X79750Y-44500D02*
X81150Y-45900D01*
X79000Y-44500D02*
X79750Y-44500D01*
X77850Y-43350D02*
X79000Y-44500D01*
X89050Y-47850D02*
X89050Y-47400D01*
X81400Y-45500D02*
X79550Y-43650D01*
X83800Y-45500D02*
X81400Y-45500D01*
X85150Y-46850D02*
X83800Y-45500D01*
X88500Y-46850D02*
X85150Y-46850D01*
X89050Y-47400D02*
X88500Y-46850D01*
X85300Y-41600D02*
X86600Y-40300D01*
X95200Y-38700D02*
X96050Y-39550D01*
X91900Y-38700D02*
X95200Y-38700D01*
X90300Y-40300D02*
X91900Y-38700D01*
X86600Y-40300D02*
X90300Y-40300D01*
X96050Y-39550D02*
X96050Y-46850D01*
X96050Y-46850D02*
X95050Y-47850D01*
X94050Y-48850D02*
X93850Y-48850D01*
X92550Y-48150D02*
X92550Y-46950D01*
X92750Y-48350D02*
X92550Y-48150D01*
X93350Y-48350D02*
X92750Y-48350D01*
X93850Y-48850D02*
X93350Y-48350D01*
X88350Y-43800D02*
X89600Y-43800D01*
X91050Y-45250D02*
X91050Y-47850D01*
X89600Y-43800D02*
X91050Y-45250D01*
X79800Y-40300D02*
X79800Y-41000D01*
X89300Y-42250D02*
X89950Y-41600D01*
X81050Y-42250D02*
X89300Y-42250D01*
X79800Y-41000D02*
X81050Y-42250D01*
X88300Y-41600D02*
X89950Y-41600D01*
X89950Y-41600D02*
X92400Y-41600D01*
X92400Y-41600D02*
X93550Y-42750D01*
X96050Y-48850D02*
X96050Y-48800D01*
X93550Y-40050D02*
X93050Y-39550D01*
X93550Y-48150D02*
X93550Y-44050D01*
X93550Y-44050D02*
X93550Y-42750D01*
X93550Y-42750D02*
X93550Y-40050D01*
X93750Y-48350D02*
X93550Y-48150D01*
X95600Y-48350D02*
X93750Y-48350D01*
X96050Y-48800D02*
X95600Y-48350D01*
X78850Y-41800D02*
X79600Y-41800D01*
X81250Y-43450D02*
X81250Y-44500D01*
X79600Y-41800D02*
X81250Y-43450D01*
M02*
